<?xml version="1.0" standalone="no"?>
<!DOCTYPE svg PUBLIC "-//W3C//DTD SVG 20010904//EN"
 "http://www.w3.org/TR/2001/REC-SVG-20010904/DTD/svg10.dtd">
<svg version="1.0" xmlns="http://www.w3.org/2000/svg"
 width="487.000000pt" height="168.000000pt" viewBox="0 0 487.000000 168.000000"
 preserveAspectRatio="xMidYMid meet">

<g transform="translate(0.000000,168.000000) scale(0.100000,-0.100000)"
fill="#000000" stroke="none">
<path d="M715 1670 c-353 -56 -639 -335 -700 -685 -19 -111 -19 -179 0 -290
56 -318 280 -564 602 -661 118 -36 305 -38 428 -5 171 45 340 153 444 284 65
81 136 222 162 322 30 112 30 298 0 410 -95 361 -406 612 -780 630 -53 2 -123
0 -156 -5z m514 -335 c16 -8 34 -28 41 -46 12 -28 11 -36 -6 -68 -36 -66 -121
-63 -154 5 -14 28 -22 32 -98 48 -46 10 -86 15 -89 13 -6 -6 -52 -215 -53
-238 0 -13 14 -18 60 -23 70 -8 155 -36 217 -71 41 -22 47 -23 66 -10 12 8 41
15 64 15 35 0 50 -6 81 -34 33 -31 37 -39 37 -85 0 -43 -5 -55 -32 -83 -25
-25 -33 -43 -33 -69 0 -143 -150 -282 -348 -324 -308 -66 -632 101 -632 324 0
27 -8 43 -29 64 -55 51 -52 126 5 177 39 34 90 40 136 16 25 -13 32 -12 81 15
59 32 190 69 243 69 38 0 33 -12 70 168 15 74 33 136 40 139 7 2 55 -5 108
-16 l95 -21 37 25 c43 29 55 30 93 10z"/>
<path d="M589 811 c-32 -33 -36 -58 -14 -100 25 -49 90 -57 130 -16 41 40 33
105 -16 130 -42 22 -67 18 -100 -14z"/>
<path d="M995 829 c-32 -19 -45 -41 -45 -79 0 -47 33 -80 81 -80 106 1 118
146 13 165 -16 3 -38 0 -49 -6z"/>
<path d="M633 544 c-9 -24 27 -50 95 -70 106 -31 299 0 318 51 13 32 -11 34
-66 7 -47 -23 -67 -27 -140 -27 -82 1 -100 6 -192 53 -5 2 -11 -4 -15 -14z"/>
<path d="M3462 1258 c-8 -8 -12 -58 -12 -160 l0 -149 -47 28 c-38 22 -59 27
-112 27 -262 -1 -381 -355 -186 -550 86 -86 189 -106 288 -56 43 22 57 25 61
15 3 -7 17 -18 30 -25 20 -9 30 -8 51 6 l25 16 0 420 c0 404 -1 420 -19 430
-26 14 -64 13 -79 -2z m-83 -398 c42 -29 72 -91 78 -159 4 -47 0 -65 -24 -111
-64 -124 -185 -135 -269 -25 -51 68 -45 197 14 267 52 61 138 73 201 28z"/>
<path d="M4086 1248 c-13 -18 -16 -52 -16 -161 l0 -138 -27 21 c-16 11 -53 25
-83 32 -86 17 -157 -7 -230 -80 -86 -86 -116 -195 -86 -313 43 -169 191 -270
338 -229 20 6 47 19 59 29 23 19 24 19 52 -5 31 -26 62 -25 85 4 9 12 12 112
12 422 0 382 -1 408 -18 423 -26 24 -68 21 -86 -5z m-119 -369 c38 -14 71 -46
95 -93 28 -55 23 -168 -11 -217 -35 -52 -69 -72 -125 -77 -41 -3 -58 1 -86 20
-86 58 -113 195 -57 290 43 73 115 104 184 77z"/>
<path d="M4353 1195 c-66 -28 -80 -116 -26 -169 20 -20 36 -26 70 -26 116 0
144 151 37 196 -40 17 -41 17 -81 -1z"/>
<path d="M4660 1120 c-15 -15 -20 -33 -20 -75 l0 -55 -38 0 c-45 0 -62 -14
-62 -50 0 -36 17 -50 62 -50 l38 0 0 -235 c0 -222 1 -236 20 -255 25 -25 55
-25 80 0 19 19 20 33 20 255 l0 235 38 0 c52 0 80 29 66 68 -8 23 -17 28 -54
32 l-45 5 -3 55 c-4 61 -22 90 -59 90 -12 0 -32 -9 -43 -20z"/>
<path d="M2242 996 c-23 -8 -57 -25 -75 -39 l-33 -25 -12 30 c-10 26 -15 29
-49 26 -60 -5 -63 -18 -63 -295 0 -134 4 -253 10 -267 14 -38 53 -53 84 -33
24 16 24 19 28 189 4 187 9 207 65 260 36 34 73 48 127 48 47 0 76 22 76 57 0
49 -80 74 -158 49z"/>
<path d="M2599 994 c-96 -29 -179 -134 -197 -248 -40 -256 191 -449 413 -345
45 21 105 79 105 102 0 7 -7 23 -16 35 -21 31 -65 28 -115 -7 -73 -53 -144
-53 -206 2 -33 29 -63 80 -63 107 0 6 67 10 194 10 183 0 195 1 221 22 25 20
27 25 22 73 -11 110 -100 220 -200 250 -61 18 -98 18 -158 -1z m135 -118 c37
-15 96 -82 96 -108 0 -16 -13 -18 -148 -18 -82 0 -151 3 -155 6 -9 10 17 55
50 86 50 47 99 58 157 34z"/>
<path d="M4357 922 c-15 -16 -17 -49 -17 -258 0 -254 2 -265 47 -279 17 -4 30
1 48 19 l26 26 -3 241 c-3 225 -4 242 -22 255 -27 19 -60 18 -79 -4z"/>
</g>
</svg>
