<svg id="svg" version="1.1" xmlns="http://www.w3.org/2000/svg" xmlns:xlink="http://www.w3.org/1999/xlink" width="400" height="400" viewBox="0, 0, 400,400"><g id="svgg"><path id="path0" d="M171.000 1.543 C 26.132 23.388,-47.672 187.662,32.417 310.000 C 111.063 430.133,288.943 430.133,367.582 310.000 C 446.233 189.850,376.659 28.473,235.000 2.471 C 221.992 0.083,184.306 -0.463,171.000 1.543 M268.873 117.090 C 272.473 118.319,278.122 121.443,281.852 124.267 L 288.457 129.266 295.979 127.068 C 300.115 125.860,306.648 123.360,310.495 121.514 C 314.342 119.667,317.689 118.356,317.933 118.600 C 319.707 120.374,308.718 136.549,302.703 141.019 L 298.500 144.142 302.500 143.443 C 305.980 142.836,319.485 138.902,323.871 137.219 C 326.711 136.129,318.525 146.215,309.914 154.414 L 301.328 162.590 300.710 174.112 C 295.267 275.679,191.019 336.254,100.750 290.301 C 87.871 283.745,87.719 283.382,98.048 283.851 C 117.062 284.714,139.468 278.266,155.717 267.253 L 159.935 264.395 153.319 263.262 C 139.385 260.875,125.864 250.999,119.225 238.360 C 114.979 230.276,115.042 229.662,120.036 230.506 C 122.256 230.881,126.868 230.858,130.286 230.454 L 136.500 229.720 131.273 227.928 C 113.428 221.814,99.000 202.581,99.000 184.906 L 99.000 181.232 104.789 183.571 C 107.972 184.857,112.432 186.205,114.698 186.568 L 118.818 187.227 113.044 181.289 C 99.068 166.917,95.453 147.555,103.141 128.250 C 105.705 121.813,104.559 121.514,113.607 130.984 C 135.740 154.151,167.395 169.868,197.393 172.587 L 204.502 173.231 204.153 164.711 C 202.737 130.249,235.921 105.833,268.873 117.090 " stroke="none" fill="#000000" fill-rule="evenodd"></path></g></svg>