<?xml version="1.0" encoding="UTF-8"?><svg id="b" xmlns="http://www.w3.org/2000/svg" width="1920" height="1082.03" viewBox="0 0 1920 1082.03"><defs><style>.d{fill:#6928b4;}.e{fill:#2d2d2d;}</style></defs><g id="c"><rect class="d" y="1" width="1920" height="1080"/><path class="e" d="m250.27,735.09c124.97,15.63,231.67,3.26,308.16-12.65,19.31-4.02,38.86,5.41,47.85,22.97,5.14,10.03,11.31,20.94,18.72,32.33,20.91,32.14,75.92,105.41,176.29,143.99,118.22,45.44,223.13,13.47,257.03,1.35,13.68-4.89,164.31-61.56,226.08-220.7,43.62-112.38,18.99-214.19,10.77-246.27-25.59-99.8-70-114.43-88.09-197.6-12.19-56.05-11.75-140.16,52.13-256.48h-298.41c-4.78,45.58-18.74,122.42-65.37,204.52-14.18,24.96-69.35,117.26-179.57,186.36-167.08,104.75-344.94,83.63-441.91,72.11-116.99-13.89-210.35-49.44-273.94-79.83v282.4c61.51,26.13,146.4,54.5,250.27,67.49Z"/><path class="e" d="m589.98,877.26c-52.06-28.04-74.58-28.2-219.27,4.34-46.32,10.42-144.78,31.22-253.29-10.46-52.69-20.24-91.99-49.16-117.42-71.1v280.97l670.9,1.03c-.89-140.79-52.72-189.58-80.92-204.77Z"/><path class="e" d="m670.58,144.87c-181.68,163.36-442.93,115.72-536.67,98.62-31.14-5.68-79.52-14.93-133.91-35.97V2.03h776.07c-18.29,38.44-50.37,93.28-105.49,142.84Z"/><path class="e" d="m1669.69,1080c-63.61-102.5-100.71-225.7-100.71-358.24,0-261.1,143.94-485.98,351.02-587.64V0h-227.66c-130.82,153.25-273.23,370.24-336.09,644.33-36.56,159.42-37.95,302.09-26.29,418.64-1.63,4.32,1.48,12.08.34,17.03h339.4Z"/></g></svg>