<?xml version="1.0" encoding="UTF-8"?><svg id="b" xmlns="http://www.w3.org/2000/svg" width="1920" height="1088.42" viewBox="0 0 1920 1088.42"><defs><style>.d{fill:#6928b4;}.e{fill:#2d2d2d;}</style></defs><g id="c"><rect class="d" width="1920" height="1080"/><path class="e" d="m372.39,664.78c104.66,12.79,194.02,2.67,258.07-10.35,16.17-3.29,32.54,4.43,40.07,18.79,4.3,8.2,9.47,17.13,15.68,26.45,17.51,26.3,63.58,86.24,147.63,117.81,99,37.18,186.86,11.02,215.25,1.1,11.45-4,137.6-50.37,189.33-180.57,36.53-91.95,15.9-175.25,9.02-201.49-21.43-81.66-58.62-93.62-73.77-161.68-10.2-45.86,3.91-179.67,57.41-274.84h-249.91c-4,37.29-29.44,165.16-68.5,232.34-11.88,20.42-58.08,95.94-150.38,152.48-139.93,85.71-288.88,68.42-370.08,59C294.25,432.44,53.26,364.79,0,339.92v231.06c51.51,21.38,285.41,83.16,372.39,93.79Z"/><path class="e" d="m620.54,941.86c-158.74-152.16-411.13-97.81-466.9-85.8-68.62,14.78-121.6,37.77-153.64,53.57v178.78l712.31-.87c-27.31-76.64-66.95-121.88-91.78-145.68Z"/><path class="e" d="m1673.17,1080c-62.73-102.5-99.31-225.7-99.31-358.24,0-261.1,141.94-485.98,346.14-587.64V0h-224.49c-129,153.25-269.43,370.24-331.42,644.33-36.06,159.42-37.42,302.09-25.93,418.64-1.61,4.32,1.46,12.08.33,17.03h334.68Z"/></g></svg>