<?xml version="1.0" encoding="UTF-8"?>
<svg id="b" xmlns="http://www.w3.org/2000/svg" viewBox="0 0 1920 1088.4">
  <defs>
    <style>
      .cls-1 {
        fill: #2d2d2d;
      }

      .cls-1, .cls-2 {
        stroke-width: 0px;
      }

      .cls-2 {
        fill: #6928b4;
      }
    </style>
  </defs>
  <g id="c">
    <rect class="cls-2" x="-210.79" y="-133.2" width="2389.73" height="1354.68"/>
    <path class="cls-1" d="m219.95,710.88c131.95,16.53,244.48,3.51,325.31-13.27,20.43-4.26,40.98,5.64,50.5,24.29,5.39,10.52,12.03,22.04,19.8,34.19,22.05,33.94,80.2,111.2,185.96,152.03,124.81,47.96,235.59,14.15,271.3,1.38,14.41-5.13,173.43-64.99,238.59-233.05,45.99-118.72,20.05-226.04,11.4-259.98-26.94-105.44-73.81-120.72-92.98-208.63-12.91-59.23-1.27-218.43,66.15-341.03h-314.91c-5.01,48.09-30.94,199.65-80.19,286.31-15.04,26.3-73.18,123.73-189.6,196.74-176.31,110.58-364.03,88.29-466.41,76.14-123.43-14.9-388.63-83.61-455.67-115.79v298.05c64.91,27.68,321.09,88.87,430.74,102.64h0Z"/>
    <path class="cls-1" d="m561.52,1039.14c-197.53-189.44-511.68-121.85-581.13-106.79-85.38,18.3-151.35,46.92-191.18,66.59v222.54l886.57-1.12c-33.98-95.34-83.27-151.6-114.26-181.22h0Z"/>
    <path class="cls-1" d="m1871.77,1221.48c-78.04-128.57-123.59-283.16-123.59-449.32,0-327.47,176.62-609.63,430.77-737.08v-168.28h-279.42c-160.56,192.17-335.31,464.38-412.48,808.28-44.93,200.02-46.55,378.87-32.24,525.12-1.99,5.48,1.87,15.18.37,21.41l416.59-.12h0Z"/>
  </g>
</svg>