<?xml version="1.0" encoding="utf-8"?>
<!-- Generator: Adobe Illustrator 28.0.0, SVG Export Plug-In . SVG Version: 6.00 Build 0)  -->
<svg version="1.1" id="b" xmlns="http://www.w3.org/2000/svg" xmlns:xlink="http://www.w3.org/1999/xlink" x="0px" y="0px"
	 viewBox="0 0 1920 1088.4" style="enable-background:new 0 0 1920 1088.4;" xml:space="preserve">
<style type="text/css">
	.st0{fill:#6928B4;}
	.st1{fill:#2D2D2D;}
</style>
<g id="c">
	<rect class="st0" width="1920" height="1088.4"/>
	<path class="st1" d="M355.5,696.7c108.9,13.6,201.8,2.9,268.5-11c16.9-3.5,33.8,4.7,41.7,20.1c4.4,8.7,9.9,18.2,16.3,28.2
		c18.2,28,66.2,91.8,153.5,125.5c103,39.6,194.4,11.7,223.9,1.1c11.9-4.2,143.1-53.6,196.9-192.3c38-98,16.5-186.6,9.4-214.6
		c-22.2-87-60.9-99.6-76.7-172.2c-10.7-48.9-1-180.3,54.6-281.5H983.7c-4.1,39.7-25.5,164.8-66.2,236.3
		C905.1,258,857.1,338.4,761,398.7c-145.5,91.3-300.4,72.9-384.9,62.8C274.2,449.2,55.3,392.5,0,366v246
		C53.6,634.8,265,685.3,355.5,696.7L355.5,696.7z"/>
	<path class="st1" d="M620.5,941.9C461.8,789.7,209.4,844,153.6,856.1C85,870.8,32,893.8,0,909.6v178.8l712.3-0.9
		C685,1010.9,645.4,965.7,620.5,941.9L620.5,941.9z"/>
	<path class="st1" d="M1673.2,1088.4c-62.7-103.3-99.3-227.5-99.3-361c0-263.1,141.9-489.8,346.1-592.2V0h-224.5
		c-129,154.4-269.4,373.1-331.4,649.4c-36.1,160.7-37.4,304.4-25.9,421.9c-1.6,4.4,1.5,12.2,0.3,17.2L1673.2,1088.4L1673.2,1088.4z"
		/>
</g>
</svg>
